<svg width="16" height="16" viewBox="0 0 16 16" fill="none" xmlns="http://www.w3.org/2000/svg">
<path d="M4.5 12C4.22386 12 4 12.2239 4 12.5C4 12.7761 4.22386 13 4.5 13H15.5C15.7761 13 16 12.7761 16 12.5C16 12.2239 15.7761 12 15.5 12H4.5Z" fill="black"/>
<path d="M0.5 14C0.223858 14 0 14.2239 0 14.5C0 14.7761 0.223858 15 0.5 15H11.5C11.7761 15 12 14.7761 12 14.5C12 14.2239 11.7761 14 11.5 14H0.5Z" fill="black"/>
<path d="M11.7274 7.39573C10.8102 8.37666 9.43597 9 7.89998 9C6.3941 9 5.04371 8.40086 4.12704 7.45299C3.77907 7.58003 3.39862 7.65 3 7.65C1.34315 7.65 0 6.44117 0 4.95C0 3.45883 1.34315 2.25 3 2.25C3.18474 2.25 3.36559 2.26503 3.5411 2.2938C4.39849 0.924631 6.02926 0 7.89998 0C9.78634 0 11.4287 0.940149 12.2802 2.32822C12.5108 2.27711 12.7519 2.25 13 2.25C14.6569 2.25 16 3.45883 16 4.95C16 6.44117 14.6569 7.65 13 7.65C12.545 7.65 12.1137 7.55885 11.7274 7.39573Z" fill="url(#paint0_linear_258_3141)"/>
<defs>
<linearGradient id="paint0_linear_258_3141" x1="8" y1="-0.5" x2="4.68472" y2="11.1193" gradientUnits="userSpaceOnUse">
<stop stop-color="#0F52FF"/>
<stop stop-color="#0F52FF" stop-opacity="0.625469"/>
<stop offset="1" stop-color="#0F52FF" stop-opacity="0"/>
</linearGradient>
</defs>
</svg>
