<svg width="17" height="16" viewBox="0 0 17 16" fill="none" xmlns="http://www.w3.org/2000/svg">
<path d="M9.94251 11.7036C10.0609 11.4793 9.99063 11.1924 9.78565 11.0629C9.58068 10.9334 9.31858 11.0103 9.20024 11.2346L7.05749 15.2964C6.93915 15.5207 7.00937 15.8076 7.21435 15.9371C7.41932 16.0666 7.68142 15.9897 7.79976 15.7654L9.94251 11.7036Z" fill="#0F52FF"/>
<path d="M3.79995 11.5559C3.99125 11.671 4.0568 11.926 3.94635 12.1254L2.74643 14.2915C2.63598 14.4909 2.39136 14.5592 2.20005 14.4441C2.00875 14.329 1.9432 14.074 2.05365 13.8746L3.25357 11.7085C3.36402 11.5091 3.60864 11.4408 3.79995 11.5559Z" fill="#0F52FF"/>
<path d="M6.79995 11.5559C6.99125 11.671 7.0568 11.926 6.94635 12.1254L5.74643 14.2915C5.63598 14.4909 5.39136 14.5592 5.20005 14.4441C5.00875 14.329 4.9432 14.074 5.05365 13.8746L6.25357 11.7085C6.36402 11.5091 6.60864 11.4408 6.79995 11.5559Z" fill="#0F52FF"/>
<path d="M15.7999 11.5559C15.9913 11.671 16.0568 11.926 15.9463 12.1254L14.7464 14.2915C14.636 14.4909 14.3914 14.5592 14.2001 14.4441C14.0087 14.329 13.9432 14.074 14.0537 13.8746L15.2536 11.7085C15.364 11.5091 15.6086 11.4408 15.7999 11.5559Z" fill="#0F52FF"/>
<path d="M12.9463 12.1254C13.0568 11.926 12.9913 11.671 12.7999 11.5559C12.6086 11.4408 12.364 11.5091 12.2536 11.7085L11.0537 13.8746C10.9432 14.074 11.0087 14.329 11.2001 14.4441C11.3914 14.5592 11.636 14.4909 11.7464 14.2915L12.9463 12.1254Z" fill="#0F52FF"/>
<path d="M12.4603 8.21748C11.4858 9.3074 10.0257 10 8.39373 10C6.79373 10 5.35894 9.33429 4.38498 8.2811C4.01526 8.42226 3.61103 8.5 3.1875 8.5C1.42709 8.5 0 7.15685 0 5.5C0 3.84315 1.42709 2.5 3.1875 2.5C3.38379 2.5 3.57594 2.5167 3.76242 2.54867C4.67339 1.02737 6.40609 0 8.39373 0C10.398 0 12.143 1.04461 13.0477 2.58691C13.2927 2.53012 13.5489 2.5 13.8125 2.5C15.5729 2.5 17 3.84315 17 5.5C17 7.15685 15.5729 8.5 13.8125 8.5C13.3291 8.5 12.8708 8.39872 12.4603 8.21748Z" fill="url(#paint0_linear_258_3177)"/>
<defs>
<linearGradient id="paint0_linear_258_3177" x1="8.5" y1="-0.555556" x2="4.67477" y2="12.2644" gradientUnits="userSpaceOnUse">
<stop stop-color="#0F52FF"/>
<stop stop-color="#0F52FF" stop-opacity="0.625469"/>
<stop offset="1" stop-color="#0F52FF" stop-opacity="0"/>
</linearGradient>
</defs>
</svg>
