<svg width="16" height="16" viewBox="0 0 16 16" fill="none" xmlns="http://www.w3.org/2000/svg">
<path d="M11.7274 14.3957C10.8102 15.3767 9.43597 16 7.89998 16C6.3941 16 5.04371 15.4009 4.12704 14.453C3.77907 14.58 3.39862 14.65 3 14.65C1.34315 14.65 0 13.4412 0 11.95C0 10.4588 1.34315 9.25 3 9.25C3.18474 9.25 3.36559 9.26503 3.5411 9.2938C4.39849 7.92463 6.02926 7 7.89998 7C9.78634 7 11.4287 7.94015 12.2802 9.32822C12.5108 9.27711 12.7519 9.25 13 9.25C14.6569 9.25 16 10.4588 16 11.95C16 13.4412 14.6569 14.65 13 14.65C12.545 14.65 12.1137 14.5588 11.7274 14.3957Z" fill="url(#paint0_linear_258_3038)"/>
<path d="M15.605 6.634C15.5682 6.6341 15.5315 6.63915 15.496 6.649C15.1433 6.74503 14.7795 6.79379 14.414 6.794C13.9287 6.79222 13.4473 6.70837 12.99 6.546C11.9828 6.19155 11.1446 5.47308 10.6404 4.5319C10.1361 3.59071 10.0022 2.49492 10.265 1.46C10.2801 1.40333 10.2822 1.34397 10.2711 1.28637C10.26 1.22878 10.236 1.17445 10.2008 1.12748C10.1657 1.08051 10.1204 1.04212 10.0683 1.01519C10.0162 0.988256 9.95864 0.973491 9.9 0.972C9.85203 0.971939 9.8045 0.981106 9.76 0.999C8.83032 1.37322 8.04205 2.03064 7.50699 2.87802C6.97192 3.7254 6.71722 4.71973 6.779 5.72C6.786 5.84 6.817 5.953 6.834 6.07C7.05516 6.04095 7.27794 6.02592 7.501 6.025C7.614 6.025 7.725 6.037 7.837 6.045C7.81002 5.91819 7.78999 5.79 7.777 5.661C7.74089 5.06813 7.84492 4.47509 8.08068 3.92991C8.31644 3.38474 8.67728 2.90275 9.134 2.523C9.13745 3.07621 9.22581 3.62561 9.396 4.152C9.64572 4.92246 10.0703 5.6247 10.6365 6.20378C11.2028 6.78286 11.8953 7.22308 12.66 7.49C13.2234 7.68922 13.8164 7.792 14.414 7.794H14.461C14.2075 8.0955 13.9086 8.35563 13.575 8.565C13.8943 8.72988 14.1886 8.93931 14.449 9.187C15.1323 8.65847 15.6593 7.95446 15.974 7.15C15.9955 7.09122 16.0024 7.02807 15.9939 6.96604C15.9855 6.90401 15.962 6.84499 15.9255 6.79412C15.889 6.74324 15.8407 6.70206 15.7846 6.67415C15.7286 6.64625 15.6666 6.63246 15.604 6.634H15.605Z" fill="#F59B12"/>
<defs>
<linearGradient id="paint0_linear_258_3038" x1="8" y1="6.5" x2="4.68472" y2="18.1193" gradientUnits="userSpaceOnUse">
<stop stop-color="#0F52FF"/>
<stop stop-color="#0F52FF" stop-opacity="0.625469"/>
<stop offset="1" stop-color="#0F52FF" stop-opacity="0"/>
</linearGradient>
</defs>
</svg>
