<svg width="17" height="16" viewBox="0 0 17 16" fill="none" xmlns="http://www.w3.org/2000/svg">
<path d="M7.4596 8.626C7.40607 8.626 7.371 8.57584 7.395 8.53256L8.18687 7.09447C8.21086 7.05119 8.17579 7.00004 8.12226 7.00004H6.54406C6.51743 6.99942 6.49111 7.00616 6.46766 7.0196C6.4442 7.03305 6.42442 7.05274 6.41023 7.07676L5.01292 9.71391C4.97139 9.7926 5.03507 9.8831 5.13106 9.8831H6.55144C6.60128 9.8831 6.63543 9.92736 6.61974 9.96966L5.8814 11.9133C5.85371 11.9822 5.95339 12.0314 6.00507 11.9763L8.98335 8.73322C9.02211 8.69092 8.98889 8.626 8.92798 8.626H7.4596Z" fill="#F59B12"/>
<path d="M12.4603 8.21748C11.4858 9.3074 10.0257 10 8.39373 10C6.79373 10 5.35894 9.33429 4.38498 8.2811C4.01526 8.42226 3.61103 8.5 3.1875 8.5C1.42709 8.5 0 7.15685 0 5.5C0 3.84315 1.42709 2.5 3.1875 2.5C3.38379 2.5 3.57594 2.5167 3.76242 2.54867C4.67339 1.02737 6.40609 0 8.39373 0C10.398 0 12.143 1.04461 13.0477 2.58691C13.2927 2.53012 13.5489 2.5 13.8125 2.5C15.5729 2.5 17 3.84315 17 5.5C17 7.15685 15.5729 8.5 13.8125 8.5C13.3291 8.5 12.8708 8.39872 12.4603 8.21748Z" fill="url(#paint0_linear_258_3194)"/>
<path d="M11.4596 8.626C11.4061 8.626 11.371 8.57584 11.395 8.53256L12.1869 7.09447C12.2109 7.05119 12.1758 7.00004 12.1223 7.00004H10.5441C10.5174 6.99942 10.4911 7.00616 10.4677 7.0196C10.4442 7.03305 10.4244 7.05274 10.4102 7.07676L9.01292 9.71391C8.97139 9.7926 9.03507 9.8831 9.13106 9.8831H10.5514C10.6013 9.8831 10.6354 9.92736 10.6197 9.96966L9.8814 11.9133C9.85371 11.9822 9.95339 12.0314 10.0051 11.9763L12.9834 8.73322C13.0221 8.69092 12.9889 8.626 12.928 8.626H11.4596Z" fill="#F59B12"/>
<defs>
<linearGradient id="paint0_linear_258_3194" x1="8.5" y1="-0.555556" x2="4.67477" y2="12.2644" gradientUnits="userSpaceOnUse">
<stop stop-color="#0F52FF"/>
<stop stop-color="#0F52FF" stop-opacity="0.625469"/>
<stop offset="1" stop-color="#0F52FF" stop-opacity="0"/>
</linearGradient>
</defs>
</svg>
