<svg width="16" height="16" viewBox="0 0 16 16" fill="none" xmlns="http://www.w3.org/2000/svg">
<path d="M8.45463 1.26141C8.25361 0.912863 7.74639 0.912862 7.54537 1.26141L0.0697641 14.2238C-0.129707 14.5696 0.122346 15 0.524392 15H15.4756C15.8777 15 16.1297 14.5697 15.9302 14.2238L8.45463 1.26141ZM6.75488 5.5486C6.69079 4.98492 7.26659 4.5 8 4.5C8.73341 4.5 9.30921 4.98492 9.24512 5.5486L8.68217 10.5H7.31783L6.75488 5.5486ZM9.00779 12.5C9.00779 13.0523 8.56007 13.5 8.00779 13.5C7.4555 13.5 7.00779 13.0523 7.00779 12.5C7.00779 11.9477 7.4555 11.5 8.00779 11.5C8.56007 11.5 9.00779 11.9477 9.00779 12.5Z" fill="black"/>
</svg>
