<svg width="13" height="14" viewBox="0 0 13 14" fill="none" xmlns="http://www.w3.org/2000/svg">
<path d="M0.438004 5.73598C0.438004 5.07798 0.648003 4.48998 1.061 3.97198C1.474 3.45398 1.999 3.12498 2.636 2.98498C2.811 2.20098 3.21 1.54998 3.84 1.04598C4.47 0.541978 5.184 0.289978 5.996 0.289978C6.78 0.289978 7.487 0.534978 8.11 1.02498C8.733 1.51498 9.132 2.14498 9.321 2.90798H9.51C10.294 2.90798 10.966 3.18098 11.526 3.73398C12.079 4.27998 12.359 4.95198 12.359 5.72898C12.359 6.14898 12.275 6.54798 12.1 6.91898C11.925 7.28998 11.687 7.61198 11.379 7.87798V7.89898C11.379 8.31198 11.246 8.68298 10.987 9.01198C10.728 9.34098 10.399 9.54398 10.007 9.63498C9.909 10.069 9.692 10.44 9.37 10.741C9.048 11.042 8.663 11.231 8.229 11.301C8.432 11.539 8.53 11.805 8.53 12.092C8.53 12.428 8.411 12.715 8.173 12.96C7.935 13.198 7.648 13.324 7.312 13.324C6.976 13.324 6.689 13.205 6.451 12.96C6.213 12.722 6.094 12.428 6.094 12.092C6.094 11.959 6.115 11.826 6.164 11.693H6.094C5.688 11.693 5.338 11.546 5.044 11.252C4.75 10.958 4.603 10.608 4.603 10.202C4.603 9.92198 4.673 9.66998 4.813 9.45298C4.449 9.24998 4.19 8.96298 4.029 8.57798H3.133V8.57098C2.384 8.52198 1.747 8.22798 1.222 7.68198C0.697003 7.13598 0.438004 6.49198 0.438004 5.73598ZM1.418 5.56098C1.418 6.12098 1.614 6.59698 2.006 6.98898C2.398 7.38098 2.874 7.57698 3.427 7.57698C3.77 7.57698 4.092 7.49998 4.386 7.33898C4.47 7.85698 4.715 8.29098 5.114 8.64098C5.513 8.99098 5.989 9.15898 6.528 9.15898C7.137 9.15898 7.655 8.94198 8.082 8.51498C8.369 8.85098 8.726 9.01198 9.16 9.01198C9.559 9.01198 9.895 8.87198 10.182 8.59198C10.462 8.31198 10.602 7.96898 10.602 7.56998C10.882 7.38098 11.106 7.14298 11.267 6.84198C11.428 6.54798 11.512 6.22598 11.512 5.88298C11.512 5.32998 11.316 4.85398 10.917 4.46898C10.518 4.08398 10.042 3.88798 9.482 3.88798C9.09 3.88798 8.733 3.99298 8.411 4.19598C8.453 4.02798 8.467 3.83898 8.467 3.64298C8.467 2.97098 8.229 2.39698 7.746 1.92098C7.263 1.44498 6.682 1.21398 6.003 1.21398C5.345 1.21398 4.778 1.44498 4.302 1.89298C3.826 2.34098 3.574 2.90098 3.553 3.55198C3.539 3.55198 3.518 3.55198 3.497 3.55198C3.469 3.55198 3.448 3.55198 3.434 3.55198C2.881 3.55198 2.412 3.74798 2.013 4.13998C1.614 4.53198 1.418 5.01498 1.418 5.56098Z" fill="black"/>
</svg>
