<svg width="16" height="16" viewBox="0 0 16 16" fill="none" xmlns="http://www.w3.org/2000/svg">
<path d="M11.7274 14.3957C10.8102 15.3767 9.43597 16 7.89998 16C6.3941 16 5.04371 15.4009 4.12704 14.453C3.77907 14.58 3.39862 14.65 3 14.65C1.34315 14.65 0 13.4412 0 11.95C0 10.4588 1.34315 9.25 3 9.25C3.18474 9.25 3.36559 9.26503 3.5411 9.2938C4.39849 7.92463 6.02926 7 7.89998 7C9.78634 7 11.4287 7.94015 12.2802 9.32822C12.5108 9.27711 12.7519 9.25 13 9.25C14.6569 9.25 16 10.4588 16 11.95C16 13.4412 14.6569 14.65 13 14.65C12.545 14.65 12.1137 14.5588 11.7274 14.3957Z" fill="url(#paint0_linear_236_1942)"/>
<path d="M4.008 6.63655C4.02798 6.24132 4.19885 5.86882 4.48539 5.59587C4.77192 5.32292 5.15227 5.17032 5.548 5.16955C5.58421 5.1714 5.62027 5.17541 5.656 5.18155L5.74 5.19355C5.92578 5.21677 6.11435 5.18737 6.28424 5.1087C6.45414 5.03003 6.59854 4.90524 6.701 4.74855C6.94963 4.36511 7.29021 4.04994 7.69174 3.83175C8.09328 3.61355 8.54301 3.49925 9 3.49925C9.45699 3.49925 9.90672 3.61355 10.3083 3.83175C10.7098 4.04994 11.0504 4.36511 11.299 4.74855C11.4015 4.90524 11.5459 5.03003 11.7158 5.1087C11.8857 5.18737 12.0742 5.21677 12.26 5.19355L12.344 5.18155C12.3797 5.17542 12.4158 5.17141 12.452 5.16955C12.6993 5.16565 12.9438 5.22199 13.1644 5.33369C13.385 5.4454 13.5751 5.60911 13.7184 5.81071C13.8616 6.0123 13.9536 6.24573 13.9865 6.49083C14.0193 6.73592 13.9921 6.98534 13.907 7.21755C14.2191 7.35258 14.509 7.53396 14.767 7.75555C14.9704 7.34585 15.0567 6.88796 15.0164 6.43235C14.9761 5.97674 14.8108 5.54109 14.5387 5.17344C14.2666 4.80579 13.8983 4.5204 13.4743 4.34873C13.0504 4.17706 12.5872 4.12578 12.136 4.20055C11.7964 3.67847 11.3317 3.24948 10.7843 2.95251C10.2368 2.65554 9.62383 2.5 9.001 2.5C8.37817 2.5 7.76521 2.65554 7.21774 2.95251C6.67027 3.24948 6.20563 3.67847 5.866 4.20055C5.76112 4.18317 5.65524 4.17248 5.549 4.16855C5.21431 4.16841 4.88287 4.23422 4.57362 4.36221C4.26436 4.4902 3.98336 4.67787 3.74665 4.91448C3.50994 5.1511 3.32216 5.43203 3.19405 5.74124C3.06594 6.05044 3 6.38185 3 6.71655C3.00464 6.89083 3.02777 7.06414 3.069 7.23355C3.30669 6.93495 3.63768 6.72473 4.009 6.63655H4.008Z" fill="#040860"/>
<defs>
<linearGradient id="paint0_linear_236_1942" x1="8" y1="6.5" x2="4.68472" y2="18.1193" gradientUnits="userSpaceOnUse">
<stop stop-color="#0F52FF"/>
<stop stop-color="#0F52FF" stop-opacity="0.625469"/>
<stop offset="1" stop-color="#0F52FF" stop-opacity="0"/>
</linearGradient>
</defs>
</svg>
