<svg width="17" height="16" viewBox="0 0 17 16" fill="none" xmlns="http://www.w3.org/2000/svg">
<path d="M9.53354 12.125C9.60257 12.0055 9.75547 11.9645 9.87504 12.0335C9.99462 12.1026 10.0356 12.2555 9.96655 12.375L8.21655 15.4061C8.14751 15.5257 7.99462 15.5667 7.87504 15.4976C7.75547 15.4286 7.7145 15.2757 7.78354 15.1561L9.53354 12.125Z" fill="#0F52FF"/>
<path d="M13.7835 12.825C13.8526 12.7055 14.0055 12.6645 14.125 12.7335C14.2446 12.8026 14.2856 12.9555 14.2165 13.075L13.2165 14.8071C13.1475 14.9267 12.9946 14.9676 12.875 14.8986C12.7555 14.8296 12.7145 14.6767 12.7835 14.5571L13.7835 12.825Z" fill="#0F52FF"/>
<path d="M4.78354 12.825C4.85257 12.7055 5.00547 12.6645 5.12504 12.7335C5.24461 12.8026 5.28558 12.9555 5.21655 13.075L4.21655 14.8071C4.14751 14.9267 3.99461 14.9676 3.87504 14.8986C3.75547 14.8296 3.7145 14.6767 3.78354 14.5571L4.78354 12.825Z" fill="#0F52FF"/>
<path d="M12.4603 8.21748C11.4858 9.3074 10.0257 10 8.39373 10C6.79373 10 5.35894 9.33429 4.38498 8.2811C4.01526 8.42226 3.61103 8.5 3.1875 8.5C1.42709 8.5 0 7.15685 0 5.5C0 3.84315 1.42709 2.5 3.1875 2.5C3.38379 2.5 3.57594 2.5167 3.76242 2.54867C4.67339 1.02737 6.40609 0 8.39373 0C10.398 0 12.143 1.04461 13.0477 2.58691C13.2927 2.53012 13.5489 2.5 13.8125 2.5C15.5729 2.5 17 3.84315 17 5.5C17 7.15685 15.5729 8.5 13.8125 8.5C13.3291 8.5 12.8708 8.39872 12.4603 8.21748Z" fill="url(#paint0_linear_258_3196)"/>
<defs>
<linearGradient id="paint0_linear_258_3196" x1="8.5" y1="-0.555556" x2="4.67477" y2="12.2644" gradientUnits="userSpaceOnUse">
<stop stop-color="#0F52FF"/>
<stop stop-color="#0F52FF" stop-opacity="0.625469"/>
<stop offset="1" stop-color="#0F52FF" stop-opacity="0"/>
</linearGradient>
</defs>
</svg>
