<svg width="16" height="16" viewBox="0 0 16 16" fill="none" xmlns="http://www.w3.org/2000/svg">
<path d="M0.5 11C0.223858 11 0 11.2239 0 11.5C0 11.7761 0.223858 12 0.5 12H9.5C9.77614 12 10 11.7761 10 11.5C10 11.2239 9.77614 11 9.5 11H0.5Z" fill="black"/>
<path d="M3.5 13C3.22386 13 3 13.2239 3 13.5C3 13.7761 3.22386 14 3.5 14H6.5C6.77614 14 7 13.7761 7 13.5C7 13.2239 6.77614 13 6.5 13H3.5Z" fill="black"/>
<path d="M8 13.5C8 13.2239 8.22386 13 8.5 13H15.5C15.7761 13 16 13.2239 16 13.5C16 13.7761 15.7761 14 15.5 14H8.5C8.22386 14 8 13.7761 8 13.5Z" fill="black"/>
<path d="M4.5 15C4.22386 15 4 15.2239 4 15.5C4 15.7761 4.22386 16 4.5 16H13.5C13.7761 16 14 15.7761 14 15.5C14 15.2239 13.7761 15 13.5 15H4.5Z" fill="black"/>
<path d="M11.7274 8.39573C10.8102 9.37666 9.43597 10 7.89998 10C6.3941 10 5.04371 9.40086 4.12704 8.45299C3.77907 8.58003 3.39862 8.65 3 8.65C1.34315 8.65 0 7.44117 0 5.95C0 4.45883 1.34315 3.25 3 3.25C3.18474 3.25 3.36559 3.26503 3.5411 3.2938C4.39849 1.92463 6.02926 1 7.89998 1C9.78634 1 11.4287 1.94015 12.2802 3.32822C12.5108 3.27711 12.7519 3.25 13 3.25C14.6569 3.25 16 4.45883 16 5.95C16 7.44117 14.6569 8.65 13 8.65C12.545 8.65 12.1137 8.55885 11.7274 8.39573Z" fill="url(#paint0_linear_258_3139)"/>
<defs>
<linearGradient id="paint0_linear_258_3139" x1="8" y1="0.5" x2="4.68472" y2="12.1193" gradientUnits="userSpaceOnUse">
<stop stop-color="#0F52FF"/>
<stop stop-color="#0F52FF" stop-opacity="0.625469"/>
<stop offset="1" stop-color="#0F52FF" stop-opacity="0"/>
</linearGradient>
</defs>
</svg>
