<svg width="17" height="16" viewBox="0 0 17 16" fill="none" xmlns="http://www.w3.org/2000/svg">
<path d="M8.8447 12.3008C8.80455 12.3008 8.77825 12.2607 8.79625 12.226L9.39015 11.0756C9.40815 11.041 9.38184 11 9.3417 11H8.15804C8.13807 10.9995 8.11833 11.0049 8.10074 11.0157C8.08315 11.0264 8.06832 11.0422 8.05768 11.0614L7.00969 13.1711C6.97854 13.2341 7.02631 13.3065 7.09829 13.3065H8.16358C8.20096 13.3065 8.22657 13.3419 8.2148 13.3757L7.66105 14.9307C7.64028 14.9858 7.71504 15.0251 7.7538 14.981L9.98751 12.3866C10.0166 12.3527 9.99167 12.3008 9.94598 12.3008H8.8447Z" fill="#F59B12"/>
<path d="M12.4603 8.21748C11.4858 9.3074 10.0257 10 8.39373 10C6.79373 10 5.35894 9.33429 4.38498 8.2811C4.01526 8.42226 3.61103 8.5 3.1875 8.5C1.42709 8.5 0 7.15685 0 5.5C0 3.84315 1.42709 2.5 3.1875 2.5C3.38379 2.5 3.57594 2.5167 3.76242 2.54867C4.67339 1.02737 6.40609 0 8.39373 0C10.398 0 12.143 1.04461 13.0477 2.58691C13.2927 2.53012 13.5489 2.5 13.8125 2.5C15.5729 2.5 17 3.84315 17 5.5C17 7.15685 15.5729 8.5 13.8125 8.5C13.3291 8.5 12.8708 8.39872 12.4603 8.21748Z" fill="url(#paint0_linear_258_3195)"/>
<path d="M2.79995 11.5559C2.99125 11.671 3.0568 11.926 2.94635 12.1254L1.74643 14.2915C1.63598 14.4909 1.39136 14.5592 1.20005 14.4441C1.00875 14.329 0.943203 14.074 1.05365 13.8746L2.25357 11.7085C2.36402 11.5091 2.60864 11.4408 2.79995 11.5559Z" fill="#0F52FF"/>
<path d="M5.79995 11.5559C5.99125 11.671 6.0568 11.926 5.94635 12.1254L4.74643 14.2915C4.63598 14.4909 4.39136 14.5592 4.20005 14.4441C4.00875 14.329 3.9432 14.074 4.05365 13.8746L5.25357 11.7085C5.36402 11.5091 5.60864 11.4408 5.79995 11.5559Z" fill="#0F52FF"/>
<path d="M14.7999 11.5559C14.9913 11.671 15.0568 11.926 14.9463 12.1254L13.7464 14.2915C13.636 14.4909 13.3914 14.5592 13.2001 14.4441C13.0087 14.329 12.9432 14.074 13.0537 13.8746L14.2536 11.7085C14.364 11.5091 14.6086 11.4408 14.7999 11.5559Z" fill="#0F52FF"/>
<path d="M11.9463 12.1254C12.0568 11.926 11.9913 11.671 11.7999 11.5559C11.6086 11.4408 11.364 11.5091 11.2536 11.7085L10.0537 13.8746C9.9432 14.074 10.0087 14.329 10.2001 14.4441C10.3914 14.5592 10.636 14.4909 10.7464 14.2915L11.9463 12.1254Z" fill="#0F52FF"/>
<defs>
<linearGradient id="paint0_linear_258_3195" x1="8.5" y1="-0.555556" x2="4.67477" y2="12.2644" gradientUnits="userSpaceOnUse">
<stop stop-color="#0F52FF"/>
<stop stop-color="#0F52FF" stop-opacity="0.625469"/>
<stop offset="1" stop-color="#0F52FF" stop-opacity="0"/>
</linearGradient>
</defs>
</svg>
