<svg version="1.1" id="Layer_1" xmlns="http://www.w3.org/2000/svg" xmlns:xlink="http://www.w3.org/1999/xlink" x="0px" y="0px"
	 width="100%" viewBox="0 0 512 512" enable-background="new 0 0 512 512" xml:space="preserve">
<path fill="none" opacity="1.000000" stroke="none" 
	d="
M282.000000,513.000000 
	C188.022812,513.000000 94.545624,513.000000 1.034216,513.000000 
	C1.034216,342.397797 1.034216,171.795563 1.034216,1.096670 
	C171.560532,1.096670 342.121155,1.096670 512.840881,1.096670 
	C512.840881,171.666550 512.840881,342.333252 512.840881,513.000000 
	C436.128876,513.000000 359.314423,513.000000 282.000000,513.000000 
M172.500000,481.000000 
	C274.899963,481.000000 377.299896,481.000000 480.115570,481.000000 
	C479.581238,475.387329 476.234131,472.625214 472.967529,469.845734 
	C454.692505,454.296112 436.682983,438.418304 418.053314,423.305237 
	C386.272217,397.523224 359.029633,367.971375 339.231018,331.914703 
	C337.293091,328.385498 333.968353,328.077301 331.415741,331.638824 
	C329.908081,333.742432 329.137817,336.812958 329.103668,339.462402 
	C328.897369,355.457642 329.040497,371.457031 328.987305,387.454773 
	C328.930969,404.383942 316.947510,416.980316 300.996277,416.984955 
	C285.056793,416.989594 273.071564,404.369202 273.008545,387.455963 
	C272.966949,376.290924 273.116608,365.123749 272.949005,353.961029 
	C272.833862,346.291901 266.943207,343.000275 260.231750,346.602966 
	C250.172638,352.002655 243.808289,351.051819 235.579895,342.901733 
	C231.839066,339.196503 228.115692,335.473694 224.257050,331.632080 
	C218.225067,336.114258 212.873810,340.351318 207.259247,344.204742 
	C197.538132,350.876587 185.865158,347.423065 181.075409,336.641541 
	C179.895004,333.984467 178.821945,331.279694 177.352554,327.767517 
	C175.961426,330.013336 175.129303,331.395935 174.259583,332.754517 
	C167.975677,342.570496 161.987701,352.592712 155.336929,362.153778 
	C136.959763,388.572571 112.802803,409.319916 88.330276,429.750244 
	C72.085640,443.311707 56.028687,457.098389 39.929291,470.832947 
	C36.957558,473.368225 33.998787,476.034943 34.171043,481.000000 
	C80.217201,481.000000 125.858597,481.000000 172.500000,481.000000 
M273.514008,39.946663 
	C231.970810,22.233746 185.191391,40.489880 167.564331,81.173042 
	C165.961868,84.871490 165.875809,87.666733 168.247543,91.241898 
	C174.050980,99.990028 176.884506,109.792236 176.865829,120.653618 
	C171.444321,120.653618 166.387527,120.653618 161.246414,120.653618 
	C161.068542,119.008965 160.951691,117.692200 160.780655,116.382515 
	C157.835464,93.830162 136.945587,77.774315 115.268158,81.395645 
	C94.116966,84.929054 79.631432,102.937157 81.084557,123.891945 
	C82.537270,144.840820 99.913109,160.840973 121.572952,160.975632 
	C139.903091,161.089584 158.235016,160.915329 176.565155,161.028656 
	C196.927567,161.154541 212.843704,174.721695 216.427032,194.800735 
	C216.770233,196.723785 217.030579,198.661636 217.324768,200.562668 
	C227.995041,200.562668 238.369476,200.562668 249.001663,200.562668 
	C249.001663,195.468445 249.001968,190.811508 249.001572,186.154587 
	C249.001099,180.655334 249.041306,175.155716 248.991043,169.656921 
	C248.866425,156.024689 241.404449,148.058807 225.345825,144.505905 
	C225.345825,139.470306 225.345825,134.397507 225.345825,129.347366 
	C243.159012,128.455460 261.059418,142.778717 263.867889,161.011383 
	C265.275696,170.151093 264.723114,179.597565 264.980286,188.907440 
	C265.088531,192.826538 264.998352,196.751099 264.998352,200.698120 
	C276.066040,200.698120 286.330261,200.698120 296.572388,200.698120 
	C296.767914,199.938690 296.944458,199.474945 297.002136,198.996872 
	C299.887848,175.080521 315.662689,161.026306 339.680725,161.004089 
	C357.678223,160.987442 375.678009,161.165283 393.672577,160.931763 
	C409.572205,160.725433 422.501068,148.914520 424.763672,133.064285 
	C426.897430,118.116508 417.371185,103.116905 402.648285,98.588364 
	C399.437622,97.600815 395.996643,97.362038 392.774872,96.798210 
	C384.249542,127.535263 359.512115,148.440796 337.279663,144.257492 
	C337.279663,139.356308 337.279663,134.430206 337.279663,129.564117 
	C361.975861,124.445045 373.975220,113.542702 376.692169,93.949661 
	C378.900391,78.025322 370.400513,61.593922 355.947052,53.846439 
	C343.262115,47.046947 325.992157,47.509323 318.021820,54.695751 
	C322.241913,62.338795 326.437408,69.937355 330.864838,77.955917 
	C325.058136,80.161163 320.462280,81.906555 315.599976,83.753136 
	C307.133698,63.655338 293.403870,49.299873 273.514008,39.946663 
M328.314301,310.000153 
	C317.970154,286.876953 310.917175,262.742645 306.623047,237.258698 
	C302.448761,239.306717 298.843292,240.961853 295.342560,242.814819 
	C285.417755,248.068054 275.624847,248.031143 266.782867,240.967575 
	C259.919281,235.484497 254.166443,235.433029 247.253769,240.962769 
	C238.451187,248.004303 228.619797,248.117279 218.691040,242.828400 
	C215.088974,240.909637 211.402176,239.149979 207.345551,237.112564 
	C203.372864,261.218414 196.883423,283.699768 187.727753,305.404907 
	C187.352798,306.293854 186.811356,307.469849 187.099167,308.226013 
	C190.077698,316.051239 193.210938,323.817535 196.552917,332.234344 
	C202.725006,327.659180 207.988358,323.632965 213.381775,319.789215 
	C221.238205,314.190155 229.529892,314.725433 236.570587,321.296295 
	C240.222992,324.704987 243.771835,328.239960 247.163330,331.906677 
	C248.969910,333.859924 250.301804,333.892761 252.654907,332.590546 
	C269.793243,323.105927 288.770233,334.210388 288.975891,353.781403 
	C289.091461,364.777618 288.975983,375.776031 289.005676,386.773346 
	C289.029114,395.447235 293.717743,400.963531 300.989075,400.965118 
	C308.273438,400.966705 312.976593,395.462585 312.992828,386.789215 
	C313.022766,370.793060 313.078949,354.796326 312.975311,338.800781 
	C312.904633,327.890137 317.443726,319.809784 327.345001,315.160004 
	C330.079865,313.875671 329.682861,312.572327 328.314301,310.000153 
M391.503784,320.947021 
	C391.503784,320.947021 391.550659,320.988647 391.503784,320.947021 
M467.442657,287.044312 
	C467.442657,287.044312 467.446533,286.980835 467.442657,287.044312 
M469.458252,289.978027 
	C469.458252,289.978027 469.519073,289.957642 469.458252,289.978027 
M471.442505,293.044342 
	C471.442505,293.044342 471.446472,292.980743 471.442505,293.044342 
M473.496613,296.054535 
	C473.496613,296.054535 473.448608,296.012054 473.496613,296.054535 
M475.557953,298.955750 
	C475.557953,298.955750 475.553986,299.019348 475.557953,298.955750 
M477.504059,301.945648 
	C477.504059,301.945648 477.552094,301.988098 477.504059,301.945648 
M396.447662,324.041260 
	C396.447662,324.041260 396.451508,323.984283 396.447662,324.041260 
M393.443726,324.043701 
	C393.443726,324.043701 393.447723,323.981476 393.443726,324.043701 
M379.503693,302.947174 
	C379.503693,302.947174 379.550446,302.988739 379.503693,302.947174 
M389.541168,318.021240 
	C389.541168,318.021240 389.481598,318.041077 389.541168,318.021240 
M387.503693,314.947174 
	C387.503693,314.947174 387.550446,314.988739 387.503693,314.947174 
M385.503693,311.947174 
	C385.503693,311.947174 385.550446,311.988739 385.503693,311.947174 
M383.503693,308.947174 
	C383.503693,308.947174 383.550446,308.988739 383.503693,308.947174 
M484.502533,307.951080 
	C484.502533,307.951080 484.546387,307.990356 484.502533,307.951080 
M481.558197,307.955750 
	C481.558197,307.955750 481.554291,308.019440 481.558197,307.955750 
M381.443817,306.043671 
	C381.443817,306.043671 381.447754,305.981567 381.443817,306.043671 
M479.558105,304.955780 
	C479.558105,304.955780 479.554169,305.019409 479.558105,304.955780 
z"/>
<path fill="#575757" opacity="1.000000" stroke="none" 
	d="
M172.000000,481.000000 
	C125.858597,481.000000 80.217201,481.000000 34.171043,481.000000 
	C33.998787,476.034943 36.957558,473.368225 39.929291,470.832947 
	C56.028687,457.098389 72.085640,443.311707 88.330276,429.750244 
	C112.802803,409.319916 136.959763,388.572571 155.336929,362.153778 
	C161.987701,352.592712 167.975677,342.570496 174.259583,332.754517 
	C175.129303,331.395935 175.961426,330.013336 177.352554,327.767517 
	C178.821945,331.279694 179.895004,333.984467 181.075409,336.641541 
	C185.865158,347.423065 197.538132,350.876587 207.259247,344.204742 
	C212.873810,340.351318 218.225067,336.114258 224.257050,331.632080 
	C228.115692,335.473694 231.839066,339.196503 235.579895,342.901733 
	C243.808289,351.051819 250.172638,352.002655 260.231750,346.602966 
	C266.943207,343.000275 272.833862,346.291901 272.949005,353.961029 
	C273.116608,365.123749 272.966949,376.290924 273.008545,387.455963 
	C273.071564,404.369202 285.056793,416.989594 300.996277,416.984955 
	C316.947510,416.980316 328.930969,404.383942 328.987305,387.454773 
	C329.040497,371.457031 328.897369,355.457642 329.103668,339.462402 
	C329.137817,336.812958 329.908081,333.742432 331.415741,331.638824 
	C333.968353,328.077301 337.293091,328.385498 339.231018,331.914703 
	C359.029633,367.971375 386.272217,397.523224 418.053314,423.305237 
	C436.682983,438.418304 454.692505,454.296112 472.967529,469.845734 
	C476.234131,472.625214 479.581238,475.387329 480.115570,481.000000 
	C377.299896,481.000000 274.899963,481.000000 172.000000,481.000000 
M113.102905,434.887970 
	C113.102905,439.447815 113.102905,444.007690 113.102905,448.605652 
	C118.741547,448.605652 123.609848,448.605652 128.643646,448.605652 
	C128.643646,443.337769 128.643646,438.469147 128.643646,432.632629 
	C123.266258,433.109039 118.298767,433.549103 113.102905,434.887970 
M354.887970,440.897095 
	C359.447845,440.897095 364.007690,440.897095 368.605682,440.897095 
	C368.605682,435.259521 368.605682,430.390167 368.605682,425.356323 
	C363.339355,425.356323 358.469971,425.356323 352.632629,425.356323 
	C353.109039,430.733734 353.549103,435.701202 354.887970,440.897095 
M201.001465,430.638489 
	C201.001465,433.896423 201.001465,437.154358 201.001465,440.511322 
	C206.703415,440.511322 211.689529,440.511322 216.550995,440.511322 
	C216.550995,435.142395 216.550995,430.270142 216.550995,425.003174 
	C212.650101,425.003174 209.177002,425.216248 205.742050,424.945312 
	C202.053131,424.654358 200.438751,425.966705 201.001465,430.638489 
M161.338913,385.973053 
	C161.338913,390.850281 161.338913,395.727539 161.338913,400.588074 
	C166.777344,400.588074 171.647568,400.588074 176.625992,400.588074 
	C176.625992,395.302246 176.625992,390.432861 176.625992,385.328094 
	C171.505096,385.328094 166.753189,385.328094 161.338913,385.973053 
z"/>
<path fill="#6D6D6D" opacity="1.000000" stroke="none" 
	d="
M273.867889,40.082016 
	C293.403870,49.299873 307.133698,63.655338 315.599976,83.753136 
	C320.462280,81.906555 325.058136,80.161163 330.864838,77.955917 
	C326.437408,69.937355 322.241913,62.338795 318.021820,54.695751 
	C325.992157,47.509323 343.262115,47.046947 355.947052,53.846439 
	C370.400513,61.593922 378.900391,78.025322 376.692169,93.949661 
	C373.975220,113.542702 361.975861,124.445045 337.279663,129.564117 
	C337.279663,134.430206 337.279663,139.356308 337.279663,144.257492 
	C359.512115,148.440796 384.249542,127.535263 392.774872,96.798210 
	C395.996643,97.362038 399.437622,97.600815 402.648285,98.588364 
	C417.371185,103.116905 426.897430,118.116508 424.763672,133.064285 
	C422.501068,148.914520 409.572205,160.725433 393.672577,160.931763 
	C375.678009,161.165283 357.678223,160.987442 339.680725,161.004089 
	C315.662689,161.026306 299.887848,175.080521 297.002136,198.996872 
	C296.944458,199.474945 296.767914,199.938690 296.572388,200.698120 
	C286.330261,200.698120 276.066040,200.698120 264.998352,200.698120 
	C264.998352,196.751099 265.088531,192.826538 264.980286,188.907440 
	C264.723114,179.597565 265.275696,170.151093 263.867889,161.011383 
	C261.059418,142.778717 243.159012,128.455460 225.345825,129.347366 
	C225.345825,134.397507 225.345825,139.470306 225.345825,144.505905 
	C241.404449,148.058807 248.866425,156.024689 248.991043,169.656921 
	C249.041306,175.155716 249.001099,180.655334 249.001572,186.154587 
	C249.001968,190.811508 249.001663,195.468445 249.001663,200.562668 
	C238.369476,200.562668 227.995041,200.562668 217.324768,200.562668 
	C217.030579,198.661636 216.770233,196.723785 216.427032,194.800735 
	C212.843704,174.721695 196.927567,161.154541 176.565155,161.028656 
	C158.235016,160.915329 139.903091,161.089584 121.572952,160.975632 
	C99.913109,160.840973 82.537270,144.840820 81.084557,123.891945 
	C79.631432,102.937157 94.116966,84.929054 115.268158,81.395645 
	C136.945587,77.774315 157.835464,93.830162 160.780655,116.382515 
	C160.951691,117.692200 161.068542,119.008965 161.246414,120.653618 
	C166.387527,120.653618 171.444321,120.653618 176.865829,120.653618 
	C176.884506,109.792236 174.050980,99.990028 168.247543,91.241898 
	C165.875809,87.666733 165.961868,84.871490 167.564331,81.173042 
	C185.191391,40.489880 231.970810,22.233746 273.867889,40.082016 
M195.644714,72.178345 
	C190.740707,79.177124 187.256927,86.735512 185.937485,95.666847 
	C191.421768,96.552811 196.391296,97.355621 201.295914,98.147949 
	C206.775299,77.280373 219.942154,66.523628 240.625504,64.663788 
	C240.625504,59.430927 240.625504,54.379639 240.625504,48.941895 
	C222.007568,49.787956 207.218246,57.082584 195.644714,72.178345 
M110.990807,99.244934 
	C101.865891,103.925056 96.907738,111.407318 97.114769,121.643158 
	C97.285370,130.078217 101.191574,136.753769 108.918480,141.671082 
	C111.000992,138.149368 112.747917,134.985458 114.703575,131.956314 
	C116.185867,129.660370 116.578529,127.967789 114.574532,125.415947 
	C111.457420,121.446709 112.871330,115.996025 117.328842,114.085510 
	C119.597794,113.113022 122.382240,113.343262 125.609833,112.946754 
	C127.777756,109.200150 130.297424,104.845642 132.944901,100.270271 
	C125.581047,96.314438 118.734558,96.119621 110.990807,99.244934 
z"/>
<path fill="#E1662B" opacity="1.000000" stroke="none" 
	d="
M328.494568,310.321289 
	C329.682861,312.572327 330.079865,313.875671 327.345001,315.160004 
	C317.443726,319.809784 312.904633,327.890137 312.975311,338.800781 
	C313.078949,354.796326 313.022766,370.793060 312.992828,386.789215 
	C312.976593,395.462585 308.273438,400.966705 300.989075,400.965118 
	C293.717743,400.963531 289.029114,395.447235 289.005676,386.773346 
	C288.975983,375.776031 289.091461,364.777618 288.975891,353.781403 
	C288.770233,334.210388 269.793243,323.105927 252.654907,332.590546 
	C250.301804,333.892761 248.969910,333.859924 247.163330,331.906677 
	C243.771835,328.239960 240.222992,324.704987 236.570587,321.296295 
	C229.529892,314.725433 221.238205,314.190155 213.381775,319.789215 
	C207.988358,323.632965 202.725006,327.659180 196.552917,332.234344 
	C193.210938,323.817535 190.077698,316.051239 187.099167,308.226013 
	C186.811356,307.469849 187.352798,306.293854 187.727753,305.404907 
	C196.883423,283.699768 203.372864,261.218414 207.345551,237.112564 
	C211.402176,239.149979 215.088974,240.909637 218.691040,242.828400 
	C228.619797,248.117279 238.451187,248.004303 247.253769,240.962769 
	C254.166443,235.433029 259.919281,235.484497 266.782867,240.967575 
	C275.624847,248.031143 285.417755,248.068054 295.342560,242.814819 
	C298.843292,240.961853 302.448761,239.306717 306.623047,237.258698 
	C310.917175,262.742645 317.970154,286.876953 328.494568,310.321289 
z"/>
<path fill="#030201" opacity="1.000000" stroke="none" 
	d="
M391.527222,320.967834 
	C391.550659,320.988647 391.503784,320.947021 391.527222,320.967834 
z"/>
<path fill="#030301" opacity="1.000000" stroke="none" 
	d="
M467.444580,287.012573 
	C467.446533,286.980835 467.442657,287.044312 467.444580,287.012573 
z"/>
<path fill="#030301" opacity="1.000000" stroke="none" 
	d="
M469.488647,289.967834 
	C469.519073,289.957642 469.458252,289.978027 469.488647,289.967834 
z"/>
<path fill="#030301" opacity="1.000000" stroke="none" 
	d="
M471.444489,293.012543 
	C471.446472,292.980743 471.442505,293.044342 471.444489,293.012543 
z"/>
<path fill="#030301" opacity="1.000000" stroke="none" 
	d="
M473.472595,296.033295 
	C473.448608,296.012054 473.496613,296.054535 473.472595,296.033295 
z"/>
<path fill="#030301" opacity="1.000000" stroke="none" 
	d="
M475.555969,298.987549 
	C475.553986,299.019348 475.557953,298.955750 475.555969,298.987549 
z"/>
<path fill="#030301" opacity="1.000000" stroke="none" 
	d="
M477.528076,301.966858 
	C477.552094,301.988098 477.504059,301.945648 477.528076,301.966858 
z"/>
<path fill="#030201" opacity="1.000000" stroke="none" 
	d="
M396.449585,324.012756 
	C396.451508,323.984283 396.447662,324.041260 396.449585,324.012756 
z"/>
<path fill="#030201" opacity="1.000000" stroke="none" 
	d="
M393.445740,324.012573 
	C393.447723,323.981476 393.443726,324.043701 393.445740,324.012573 
z"/>
<path fill="#030201" opacity="1.000000" stroke="none" 
	d="
M379.527069,302.967957 
	C379.550446,302.988739 379.503693,302.947174 379.527069,302.967957 
z"/>
<path fill="#030201" opacity="1.000000" stroke="none" 
	d="
M389.511383,318.031158 
	C389.481598,318.041077 389.541168,318.021240 389.511383,318.031158 
z"/>
<path fill="#030201" opacity="1.000000" stroke="none" 
	d="
M387.527069,314.967957 
	C387.550446,314.988739 387.503693,314.947174 387.527069,314.967957 
z"/>
<path fill="#030201" opacity="1.000000" stroke="none" 
	d="
M385.527069,311.967957 
	C385.550446,311.988739 385.503693,311.947174 385.527069,311.967957 
z"/>
<path fill="#030201" opacity="1.000000" stroke="none" 
	d="
M383.527069,308.967957 
	C383.550446,308.988739 383.503693,308.947174 383.527069,308.967957 
z"/>
<path fill="#030301" opacity="1.000000" stroke="none" 
	d="
M484.524475,307.970703 
	C484.546387,307.990356 484.502533,307.951080 484.524475,307.970703 
z"/>
<path fill="#030301" opacity="1.000000" stroke="none" 
	d="
M481.556244,307.987610 
	C481.554291,308.019440 481.558197,307.955750 481.556244,307.987610 
z"/>
<path fill="#030201" opacity="1.000000" stroke="none" 
	d="
M381.445801,306.012634 
	C381.447754,305.981567 381.443817,306.043671 381.445801,306.012634 
z"/>
<path fill="#030301" opacity="1.000000" stroke="none" 
	d="
M479.556152,304.987610 
	C479.554169,305.019409 479.558105,304.955780 479.556152,304.987610 
z"/>
<path fill="#000000" opacity="1.000000" stroke="none" 
	d="
M113.217094,434.438599 
	C118.298767,433.549103 123.266258,433.109039 128.643646,432.632629 
	C128.643646,438.469147 128.643646,443.337769 128.643646,448.605652 
	C123.609848,448.605652 118.741547,448.605652 113.102905,448.605652 
	C113.102905,444.007690 113.102905,439.447815 113.217094,434.438599 
z"/>
<path fill="#000000" opacity="1.000000" stroke="none" 
	d="
M354.438568,440.782898 
	C353.549103,435.701202 353.109039,430.733734 352.632629,425.356323 
	C358.469971,425.356323 363.339355,425.356323 368.605682,425.356323 
	C368.605682,430.390167 368.605682,435.259521 368.605682,440.897095 
	C364.007690,440.897095 359.447845,440.897095 354.438568,440.782898 
z"/>
<path fill="#000000" opacity="1.000000" stroke="none" 
	d="
M201.002350,430.165680 
	C200.438751,425.966705 202.053131,424.654358 205.742050,424.945312 
	C209.177002,425.216248 212.650101,425.003174 216.550995,425.003174 
	C216.550995,430.270142 216.550995,435.142395 216.550995,440.511322 
	C211.689529,440.511322 206.703415,440.511322 201.001465,440.511322 
	C201.001465,437.154358 201.001465,433.896423 201.002350,430.165680 
z"/>
<path fill="#000000" opacity="1.000000" stroke="none" 
	d="
M161.670105,385.650574 
	C166.753189,385.328094 171.505096,385.328094 176.625992,385.328094 
	C176.625992,390.432861 176.625992,395.302246 176.625992,400.588074 
	C171.647568,400.588074 166.777344,400.588074 161.338913,400.588074 
	C161.338913,395.727539 161.338913,390.850281 161.670105,385.650574 
z"/>
<path fill="#020202" opacity="1.000000" stroke="none" 
	d="
M195.857559,71.890076 
	C207.218246,57.082584 222.007568,49.787956 240.625504,48.941895 
	C240.625504,54.379639 240.625504,59.430927 240.625504,64.663788 
	C219.942154,66.523628 206.775299,77.280373 201.295914,98.147949 
	C196.391296,97.355621 191.421768,96.552811 185.937485,95.666847 
	C187.256927,86.735512 190.740707,79.177124 195.857559,71.890076 
z"/>
<path fill="#020202" opacity="1.000000" stroke="none" 
	d="
M111.351265,99.107689 
	C118.734558,96.119621 125.581047,96.314438 132.944901,100.270271 
	C130.297424,104.845642 127.777756,109.200150 125.609833,112.946754 
	C122.382240,113.343262 119.597794,113.113022 117.328842,114.085510 
	C112.871330,115.996025 111.457420,121.446709 114.574532,125.415947 
	C116.578529,127.967789 116.185867,129.660370 114.703575,131.956314 
	C112.747917,134.985458 111.000992,138.149368 108.918480,141.671082 
	C101.191574,136.753769 97.285370,130.078217 97.114769,121.643158 
	C96.907738,111.407318 101.865891,103.925056 111.351265,99.107689 
z"/>
</svg>