<svg width="16" height="16" viewBox="0 0 16 16" fill="none" xmlns="http://www.w3.org/2000/svg">
<path d="M11.7274 10.3957C10.8102 11.3767 9.43597 12 7.89998 12C6.3941 12 5.04371 11.4009 4.12704 10.453C3.77907 10.58 3.39862 10.65 3 10.65C1.34315 10.65 0 9.44117 0 7.95C0 6.45883 1.34315 5.25 3 5.25C3.18474 5.25 3.36559 5.26503 3.5411 5.2938C4.39849 3.92463 6.02926 3 7.89998 3C9.78634 3 11.4287 3.94015 12.2802 5.32822C12.5108 5.27711 12.7519 5.25 13 5.25C14.6569 5.25 16 6.45883 16 7.95C16 9.44117 14.6569 10.65 13 10.65C12.545 10.65 12.1137 10.5588 11.7274 10.3957Z" fill="url(#paint0_linear_258_3174)"/>
<path d="M15.466 4.215C15.439 4.21484 15.4121 4.2182 15.386 4.225C15.1234 4.29697 14.8523 4.33362 14.58 4.334C14.2188 4.33259 13.8604 4.27004 13.52 4.149C12.7705 3.88507 12.1469 3.35037 11.7716 2.64999C11.3964 1.9496 11.2966 1.13418 11.492 0.364C11.5034 0.321746 11.505 0.277462 11.4968 0.234488C11.4885 0.191514 11.4706 0.150972 11.4444 0.115921C11.4182 0.0808692 11.3844 0.0522228 11.3456 0.0321423C11.3067 0.0120617 11.2637 0.00107138 11.22 1.29937e-07C11.1844 -3.42515e-05 11.1491 0.0067547 11.116 0.0200001C10.4916 0.272832 9.95213 0.698296 9.56074 1.24659C9.16936 1.79488 8.94225 2.44332 8.90601 3.116C9.24535 3.17873 9.57718 3.27694 9.89601 3.409C9.87336 2.80575 10.0646 2.21391 10.436 1.738C10.4715 1.97779 10.5267 2.21426 10.601 2.445C10.7991 3.05641 11.136 3.61369 11.5853 4.07325C12.0347 4.5328 12.5842 4.88216 13.191 5.094C13.4655 5.18991 13.7489 5.25792 14.037 5.297C13.9604 5.35572 13.8806 5.41013 13.798 5.46C14.1024 5.63285 14.3797 5.8495 14.621 6.103C15.1223 5.71101 15.5091 5.19158 15.741 4.599C15.757 4.55528 15.762 4.50834 15.7557 4.46223C15.7494 4.41612 15.732 4.37224 15.7049 4.33441C15.6778 4.29657 15.6419 4.26592 15.6002 4.24511C15.5586 4.22431 15.5125 4.21397 15.466 4.215Z" fill="#F59B12"/>
<path d="M4.5 13C4.22386 13 4 13.2239 4 13.5C4 13.7761 4.22386 14 4.5 14H15.5C15.7761 14 16 13.7761 16 13.5C16 13.2239 15.7761 13 15.5 13H4.5Z" fill="black"/>
<path d="M0.5 15C0.223858 15 0 15.2239 0 15.5C0 15.7761 0.223858 16 0.5 16H11.5C11.7761 16 12 15.7761 12 15.5C12 15.2239 11.7761 15 11.5 15H0.5Z" fill="black"/>
<defs>
<linearGradient id="paint0_linear_258_3174" x1="8" y1="2.5" x2="4.68472" y2="14.1193" gradientUnits="userSpaceOnUse">
<stop stop-color="#0F52FF"/>
<stop stop-color="#0F52FF" stop-opacity="0.625469"/>
<stop offset="1" stop-color="#0F52FF" stop-opacity="0"/>
</linearGradient>
</defs>
</svg>
